<?xml version="1.0" standalone="no"?>
<!DOCTYPE svg PUBLIC "-//W3C//DTD SVG 20010904//EN"
 "http://www.w3.org/TR/2001/REC-SVG-20010904/DTD/svg10.dtd">
<svg version="1.0" xmlns="http://www.w3.org/2000/svg"
 width="800.000000pt" height="800.000000pt" viewBox="0 0 800.000000 800.000000"
 preserveAspectRatio="xMidYMid meet">
<metadata>
Created by potrace 1.14, written by Peter Selinger 2001-2017
</metadata>
<g transform="translate(0.000000,800.000000) scale(0.100000,-0.100000)"
fill="#000000" stroke="none">
<path d="M2533 7369 c-410 -59 -738 -277 -894 -594 -64 -130 -90 -233 -92
-357 -1 -54 -5 -98 -8 -98 -3 0 -12 -34 -19 -76 -27 -170 -62 -229 -153 -261
-43 -15 -82 -18 -222 -17 -199 1 -318 22 -484 85 -131 49 -160 50 -197 7 -80
-95 -101 -225 -52 -328 88 -189 326 -310 693 -351 165 -19 552 -16 710 5 72 9
137 19 146 22 24 7 44 -135 36 -263 -11 -196 -72 -367 -241 -677 -135 -248
-366 -684 -366 -691 0 -2 10 0 23 5 12 5 96 28 186 50 537 133 890 266 1101
413 l75 52 7 75 c11 106 42 210 97 325 63 134 137 248 337 527 299 416 421
619 510 849 102 265 123 541 55 727 -130 357 -540 585 -1044 581 -78 -1 -170
-5 -204 -10z"/>
<path d="M5075 4664 c-270 -30 -687 -128 -945 -221 -275 -99 -447 -183 -765
-373 -126 -76 -254 -146 -282 -155 -66 -21 -112 -14 -156 25 l-34 29 -59 -60
c-69 -70 -230 -183 -251 -175 -8 3 -11 1 -8 -4 3 -5 -44 -35 -106 -65 -352
-177 -823 -320 -1122 -341 l-95 -7 -14 -101 c-16 -127 -16 -433 1 -551 98
-682 453 -1181 931 -1307 l85 -23 1895 0 1895 0 96 26 c113 32 251 87 244 99
-7 11 24 22 37 13 6 -3 8 -2 5 4 -4 6 5 15 19 22 17 7 23 8 19 0 -9 -13 62 23
90 46 11 9 14 14 8 10 -22 -11 -14 4 8 16 17 9 20 8 13 -3 -12 -20 47 19 76
51 14 15 21 20 15 12 -17 -25 81 48 194 145 118 102 267 253 382 389 320 380
647 921 724 1200 21 76 13 99 -75 208 -109 136 -332 325 -570 482 -487 323
-1009 524 -1556 601 -159 22 -538 27 -699 8z m898 -1371 c-62 -2 -164 -2 -225
0 -62 1 -12 3 112 3 124 0 174 -2 113 -3z m230 -10 c-18 -2 -48 -2 -65 0 -18
2 -4 4 32 4 36 0 50 -2 33 -4z m100 -10 c-13 -2 -33 -2 -45 0 -13 2 -3 4 22 4
25 0 35 -2 23 -4z m122 -12 c53 -11 5 -12 -55 -2 -34 6 -37 9 -15 9 17 1 48
-3 70 -7z m140 -26 c67 -17 36 -18 -40 -1 -33 8 -49 14 -35 14 14 0 48 -6 75
-13z m82 -21 c-3 -3 -12 -4 -19 -1 -8 3 -5 6 6 6 11 1 17 -2 13 -5z m58 -14
c13 -5 14 -9 5 -9 -8 0 -24 4 -35 9 -13 5 -14 9 -5 9 8 0 24 -4 35 -9z m126
-41 c44 -17 79 -33 77 -34 -2 -2 -44 11 -93 30 -50 19 -84 34 -77 35 7 0 49
-14 93 -31z m134 -59 c3 -6 -1 -7 -9 -4 -18 7 -21 14 -7 14 6 0 13 -4 16 -10z
m121 -76 c67 -47 139 -123 167 -175 17 -33 17 -33 0 -9 -74 102 -118 142 -259
238 -16 10 -15 11 6 1 14 -6 53 -31 86 -55z m229 -320 c8 -32 14 -94 13 -139
l-1 -80 -7 105 c-5 68 -15 124 -29 160 -24 64 -26 76 -6 38 8 -14 22 -53 30
-84z m-5 -295 c-17 -68 -23 -57 -8 15 7 32 14 53 16 47 2 -7 -2 -34 -8 -62z
m-36 -108 c-9 -23 -18 -40 -20 -38 -2 2 4 22 13 45 9 23 18 40 20 38 2 -2 -4
-22 -13 -45z m-59 -121 c-9 -16 -18 -30 -21 -30 -2 0 2 14 11 30 9 17 18 30
21 30 2 0 -2 -13 -11 -30z m-42 -71 c-10 -17 -24 -36 -32 -42 -8 -7 -2 7 14
31 32 49 45 57 18 11z m-62 -86 c-11 -16 -59 -66 -107 -113 l-88 -85 104 112
c58 61 106 112 108 112 2 1 -6 -11 -17 -26z m-211 -206 c0 -2 -15 -16 -32 -33
l-33 -29 29 33 c28 30 36 37 36 29z m-80 -70 c0 -2 -10 -12 -22 -23 l-23 -19
19 23 c18 21 26 27 26 19z m-50 -41 c0 -2 -8 -10 -17 -17 -16 -13 -17 -12 -4
4 13 16 21 21 21 13z m-40 -30 c0 -2 -8 -10 -17 -17 -16 -13 -17 -12 -4 4 13
16 21 21 21 13z m-190 -131 c0 -2 -10 -9 -22 -15 -22 -11 -22 -10 -4 4 21 17
26 19 26 11z m-353 -161 c-3 -3 -12 -4 -19 -1 -8 3 -5 6 6 6 11 1 17 -2 13 -5z
m-40 -10 c-3 -3 -12 -4 -19 -1 -8 3 -5 6 6 6 11 1 17 -2 13 -5z m-40 -10 c-3
-3 -12 -4 -19 -1 -8 3 -5 6 6 6 11 1 17 -2 13 -5z m-54 -11 c-7 -2 -19 -2 -25
0 -7 3 -2 5 12 5 14 0 19 -2 13 -5z m-930 -10 c-479 -2 -1267 -2 -1750 0 -483
1 -90 2 872 2 963 0 1358 -1 878 -2z"/>
<path d="M2782 4260 c0 -14 2 -19 5 -12 2 6 2 18 0 25 -3 6 -5 1 -5 -13z"/>
<path d="M1271 3414 c0 -11 3 -14 6 -6 3 7 2 16 -1 19 -3 4 -6 -2 -5 -13z"/>
<path d="M1261 3364 c0 -11 3 -14 6 -6 3 7 2 16 -1 19 -3 4 -6 -2 -5 -13z"/>
</g>
</svg>
